<svg xmlns="http://www.w3.org/2000/svg" xmlns:xlink="http://www.w3.org/1999/xlink" width="100" zoomAndPan="magnify" viewBox="0 0 75 37.5" height="50" preserveAspectRatio="xMidYMid meet" version="1.0"><defs><g/><clipPath id="dd55c477a5"><path d="M 19.449219 3 L 54.480469 3 L 54.480469 10.886719 L 19.449219 10.886719 Z M 19.449219 3 " clip-rule="nonzero"/></clipPath></defs><g clip-path="url(#dd55c477a5)"><path fill="#e4c590" d="M 54.871094 9.050781 L 54.871094 5.578125 C 54.871094 4.554688 54.015625 3.730469 52.957031 3.730469 L 46.53125 3.730469 C 46.230469 3.730469 45.949219 3.855469 45.75 4.070312 L 43.179688 6.90625 L 31.351562 6.90625 L 31.351562 6.480469 L 20.105469 6.238281 C 19.503906 6.222656 19.007812 6.710938 19.007812 7.3125 C 19.007812 7.914062 19.503906 8.394531 20.105469 8.382812 L 31.351562 8.152344 L 31.351562 7.71875 L 43.203125 7.71875 L 45.929688 10.578125 C 46.125 10.78125 46.398438 10.898438 46.691406 10.898438 L 52.960938 10.898438 C 54.015625 10.898438 54.871094 10.070312 54.871094 9.050781 Z M 46.898438 5.5 C 46.742188 5.5 46.613281 5.371094 46.613281 5.21875 C 46.613281 5.0625 46.742188 4.933594 46.898438 4.933594 L 53.152344 4.933594 C 53.308594 4.933594 53.4375 5.0625 53.4375 5.21875 C 53.4375 5.371094 53.308594 5.5 53.152344 5.5 Z M 53.152344 7.03125 C 53.308594 7.03125 53.4375 7.160156 53.4375 7.3125 C 53.4375 7.46875 53.308594 7.597656 53.152344 7.597656 L 46.898438 7.597656 C 46.742188 7.597656 46.613281 7.46875 46.613281 7.3125 C 46.613281 7.160156 46.742188 7.03125 46.898438 7.03125 Z M 46.898438 6.550781 C 46.742188 6.550781 46.613281 6.421875 46.613281 6.265625 C 46.613281 6.113281 46.742188 5.984375 46.898438 5.984375 L 53.152344 5.984375 C 53.308594 5.984375 53.4375 6.113281 53.4375 6.265625 C 53.4375 6.421875 53.308594 6.550781 53.152344 6.550781 Z M 46.898438 8.644531 C 46.742188 8.644531 46.613281 8.519531 46.613281 8.363281 C 46.613281 8.207031 46.742188 8.082031 46.898438 8.082031 L 53.152344 8.082031 C 53.308594 8.082031 53.4375 8.207031 53.4375 8.363281 C 53.4375 8.519531 53.308594 8.644531 53.152344 8.644531 Z M 46.898438 9.695312 C 46.742188 9.695312 46.613281 9.570312 46.613281 9.414062 C 46.613281 9.257812 46.742188 9.132812 46.898438 9.132812 L 53.152344 9.132812 C 53.308594 9.132812 53.4375 9.257812 53.4375 9.414062 C 53.4375 9.570312 53.308594 9.695312 53.152344 9.695312 Z M 46.898438 9.695312 " fill-opacity="1" fill-rule="nonzero"/></g><g fill="#e4c590" fill-opacity="1"><g transform="translate(23.004684, 32.503132)"><g><path d="M 1.234375 -2.796875 C 1.359375 -2.796875 1.472656 -2.78125 1.578125 -2.75 C 1.691406 -2.726562 1.789062 -2.6875 1.875 -2.625 C 1.957031 -2.550781 2.023438 -2.46875 2.078125 -2.375 C 2.128906 -2.28125 2.15625 -2.164062 2.15625 -2.03125 C 2.15625 -1.894531 2.128906 -1.78125 2.078125 -1.6875 C 2.023438 -1.59375 1.957031 -1.515625 1.875 -1.453125 C 1.8125 -1.398438 1.738281 -1.359375 1.65625 -1.328125 C 1.570312 -1.304688 1.484375 -1.289062 1.390625 -1.28125 L 1.390625 -1.265625 C 1.429688 -1.242188 1.472656 -1.207031 1.515625 -1.15625 C 1.554688 -1.113281 1.601562 -1.066406 1.65625 -1.015625 C 1.707031 -0.953125 1.757812 -0.882812 1.8125 -0.8125 C 1.863281 -0.738281 1.914062 -0.664062 1.96875 -0.59375 L 2.375 0 L 1.953125 0 L 1.5 -0.6875 C 1.425781 -0.8125 1.359375 -0.910156 1.296875 -0.984375 C 1.242188 -1.054688 1.191406 -1.113281 1.140625 -1.15625 C 1.085938 -1.207031 1.035156 -1.238281 0.984375 -1.25 C 0.929688 -1.269531 0.867188 -1.28125 0.796875 -1.28125 L 0.71875 -1.28125 L 0.71875 0 L 0.359375 0 L 0.359375 -2.796875 Z M 1.234375 -1.5625 C 1.316406 -1.5625 1.390625 -1.566406 1.453125 -1.578125 C 1.523438 -1.597656 1.582031 -1.628906 1.625 -1.671875 C 1.675781 -1.710938 1.710938 -1.757812 1.734375 -1.8125 C 1.765625 -1.875 1.78125 -1.945312 1.78125 -2.03125 C 1.78125 -2.113281 1.765625 -2.1875 1.734375 -2.25 C 1.710938 -2.3125 1.675781 -2.359375 1.625 -2.390625 C 1.582031 -2.429688 1.523438 -2.457031 1.453125 -2.46875 C 1.390625 -2.488281 1.316406 -2.5 1.234375 -2.5 L 0.71875 -2.5 L 0.71875 -1.5625 Z M 1.234375 -1.5625 "/></g></g></g><g fill="#e4c590" fill-opacity="1"><g transform="translate(25.92512, 32.503132)"><g><path d="M 0.359375 -2.796875 L 1.90625 -2.796875 L 1.90625 -2.5 L 0.71875 -2.5 L 0.71875 -1.71875 L 1.5625 -1.71875 L 1.5625 -1.421875 L 0.71875 -1.421875 L 0.71875 -0.296875 L 1.953125 -0.296875 L 1.953125 0 L 0.359375 0 Z M 0.359375 -2.796875 "/></g></g></g><g fill="#e4c590" fill-opacity="1"><g transform="translate(28.566059, 32.503132)"><g><path d="M 0.34375 -0.40625 C 0.394531 -0.382812 0.445312 -0.363281 0.5 -0.34375 C 0.5625 -0.332031 0.625 -0.316406 0.6875 -0.296875 C 0.75 -0.285156 0.8125 -0.273438 0.875 -0.265625 C 0.9375 -0.265625 1 -0.265625 1.0625 -0.265625 C 1.164062 -0.265625 1.257812 -0.273438 1.34375 -0.296875 C 1.425781 -0.316406 1.492188 -0.347656 1.546875 -0.390625 C 1.609375 -0.441406 1.65625 -0.5 1.6875 -0.5625 C 1.71875 -0.625 1.734375 -0.695312 1.734375 -0.78125 C 1.734375 -0.863281 1.71875 -0.929688 1.6875 -0.984375 C 1.65625 -1.046875 1.609375 -1.09375 1.546875 -1.125 C 1.492188 -1.164062 1.425781 -1.195312 1.34375 -1.21875 C 1.257812 -1.25 1.164062 -1.273438 1.0625 -1.296875 C 0.9375 -1.328125 0.820312 -1.363281 0.71875 -1.40625 C 0.625 -1.445312 0.539062 -1.492188 0.46875 -1.546875 C 0.394531 -1.609375 0.335938 -1.6875 0.296875 -1.78125 C 0.253906 -1.875 0.234375 -1.984375 0.234375 -2.109375 C 0.234375 -2.222656 0.253906 -2.320312 0.296875 -2.40625 C 0.335938 -2.5 0.398438 -2.578125 0.484375 -2.640625 C 0.566406 -2.703125 0.664062 -2.75 0.78125 -2.78125 C 0.894531 -2.820312 1.019531 -2.84375 1.15625 -2.84375 C 1.21875 -2.84375 1.28125 -2.835938 1.34375 -2.828125 C 1.414062 -2.816406 1.484375 -2.800781 1.546875 -2.78125 C 1.617188 -2.769531 1.6875 -2.753906 1.75 -2.734375 C 1.820312 -2.710938 1.882812 -2.691406 1.9375 -2.671875 L 1.828125 -2.390625 C 1.773438 -2.398438 1.722656 -2.414062 1.671875 -2.4375 C 1.628906 -2.457031 1.578125 -2.472656 1.515625 -2.484375 C 1.460938 -2.503906 1.40625 -2.515625 1.34375 -2.515625 C 1.28125 -2.523438 1.21875 -2.53125 1.15625 -2.53125 C 1.082031 -2.53125 1.007812 -2.519531 0.9375 -2.5 C 0.875 -2.488281 0.816406 -2.46875 0.765625 -2.4375 C 0.722656 -2.40625 0.6875 -2.363281 0.65625 -2.3125 C 0.625 -2.257812 0.609375 -2.191406 0.609375 -2.109375 C 0.609375 -2.023438 0.625 -1.957031 0.65625 -1.90625 C 0.6875 -1.851562 0.726562 -1.804688 0.78125 -1.765625 C 0.84375 -1.734375 0.914062 -1.703125 1 -1.671875 C 1.082031 -1.648438 1.175781 -1.628906 1.28125 -1.609375 C 1.40625 -1.578125 1.515625 -1.539062 1.609375 -1.5 C 1.710938 -1.457031 1.800781 -1.40625 1.875 -1.34375 C 1.945312 -1.289062 2.003906 -1.21875 2.046875 -1.125 C 2.085938 -1.03125 2.109375 -0.914062 2.109375 -0.78125 C 2.109375 -0.644531 2.082031 -0.523438 2.03125 -0.421875 C 1.976562 -0.316406 1.90625 -0.226562 1.8125 -0.15625 C 1.71875 -0.0820312 1.601562 -0.03125 1.46875 0 C 1.34375 0.03125 1.207031 0.046875 1.0625 0.046875 C 0.769531 0.046875 0.488281 -0.0078125 0.21875 -0.125 Z M 0.34375 -0.40625 "/></g></g></g><g fill="#e4c590" fill-opacity="1"><g transform="translate(31.33316, 32.503132)"><g><path d="M 0.15625 -2.796875 L 2.25 -2.796875 L 2.25 -2.5 L 1.390625 -2.5 L 1.390625 0 L 1.03125 0 L 1.03125 -2.5 L 0.15625 -2.5 Z M 0.15625 -2.796875 "/></g></g></g><g fill="#e4c590" fill-opacity="1"><g transform="translate(34.17984, 32.503132)"><g><path d="M 2.1875 -2.796875 L 2.5625 -2.796875 L 2.5625 -1.1875 C 2.5625 -0.769531 2.46875 -0.457031 2.28125 -0.25 C 2.101562 -0.0507812 1.820312 0.046875 1.4375 0.046875 C 0.695312 0.046875 0.328125 -0.363281 0.328125 -1.1875 L 0.328125 -2.796875 L 0.703125 -2.796875 L 0.703125 -1.171875 C 0.703125 -1.035156 0.710938 -0.910156 0.734375 -0.796875 C 0.753906 -0.691406 0.789062 -0.597656 0.84375 -0.515625 C 0.90625 -0.429688 0.984375 -0.367188 1.078125 -0.328125 C 1.179688 -0.285156 1.300781 -0.265625 1.4375 -0.265625 C 1.550781 -0.265625 1.648438 -0.273438 1.734375 -0.296875 C 1.828125 -0.328125 1.898438 -0.367188 1.953125 -0.421875 C 2.015625 -0.472656 2.0625 -0.535156 2.09375 -0.609375 C 2.132812 -0.691406 2.160156 -0.773438 2.171875 -0.859375 C 2.179688 -0.953125 2.1875 -1.054688 2.1875 -1.171875 Z M 2.1875 -2.796875 "/></g></g></g><g fill="#e4c590" fill-opacity="1"><g transform="translate(37.509817, 32.503132)"><g><path d="M 2.25 0 L 1.890625 -0.953125 L 0.78125 -0.953125 L 0.40625 0 L 0.03125 0 L 1.140625 -2.796875 L 1.515625 -2.796875 L 2.625 0 Z M 0.890625 -1.25 L 1.765625 -1.25 L 1.328125 -2.390625 Z M 0.890625 -1.25 "/></g></g></g><g fill="#e4c590" fill-opacity="1"><g transform="translate(40.612703, 32.503132)"><g><path d="M 1.234375 -2.796875 C 1.359375 -2.796875 1.472656 -2.78125 1.578125 -2.75 C 1.691406 -2.726562 1.789062 -2.6875 1.875 -2.625 C 1.957031 -2.550781 2.023438 -2.46875 2.078125 -2.375 C 2.128906 -2.28125 2.15625 -2.164062 2.15625 -2.03125 C 2.15625 -1.894531 2.128906 -1.78125 2.078125 -1.6875 C 2.023438 -1.59375 1.957031 -1.515625 1.875 -1.453125 C 1.8125 -1.398438 1.738281 -1.359375 1.65625 -1.328125 C 1.570312 -1.304688 1.484375 -1.289062 1.390625 -1.28125 L 1.390625 -1.265625 C 1.429688 -1.242188 1.472656 -1.207031 1.515625 -1.15625 C 1.554688 -1.113281 1.601562 -1.066406 1.65625 -1.015625 C 1.707031 -0.953125 1.757812 -0.882812 1.8125 -0.8125 C 1.863281 -0.738281 1.914062 -0.664062 1.96875 -0.59375 L 2.375 0 L 1.953125 0 L 1.5 -0.6875 C 1.425781 -0.8125 1.359375 -0.910156 1.296875 -0.984375 C 1.242188 -1.054688 1.191406 -1.113281 1.140625 -1.15625 C 1.085938 -1.207031 1.035156 -1.238281 0.984375 -1.25 C 0.929688 -1.269531 0.867188 -1.28125 0.796875 -1.28125 L 0.71875 -1.28125 L 0.71875 0 L 0.359375 0 L 0.359375 -2.796875 Z M 1.234375 -1.5625 C 1.316406 -1.5625 1.390625 -1.566406 1.453125 -1.578125 C 1.523438 -1.597656 1.582031 -1.628906 1.625 -1.671875 C 1.675781 -1.710938 1.710938 -1.757812 1.734375 -1.8125 C 1.765625 -1.875 1.78125 -1.945312 1.78125 -2.03125 C 1.78125 -2.113281 1.765625 -2.1875 1.734375 -2.25 C 1.710938 -2.3125 1.675781 -2.359375 1.625 -2.390625 C 1.582031 -2.429688 1.523438 -2.457031 1.453125 -2.46875 C 1.390625 -2.488281 1.316406 -2.5 1.234375 -2.5 L 0.71875 -2.5 L 0.71875 -1.5625 Z M 1.234375 -1.5625 "/></g></g></g><g fill="#e4c590" fill-opacity="1"><g transform="translate(43.53314, 32.503132)"><g><path d="M 0.359375 -2.796875 L 1.90625 -2.796875 L 1.90625 -2.5 L 0.71875 -2.5 L 0.71875 -1.71875 L 1.5625 -1.71875 L 1.5625 -1.421875 L 0.71875 -1.421875 L 0.71875 -0.296875 L 1.953125 -0.296875 L 1.953125 0 L 0.359375 0 Z M 0.359375 -2.796875 "/></g></g></g><g fill="#e4c590" fill-opacity="1"><g transform="translate(46.174078, 32.503132)"><g><path d="M 2.625 0.015625 L 2.203125 0.015625 L 0.71875 -2.3125 L 0.71875 0 L 0.34375 0 L 0.34375 -2.796875 L 0.78125 -2.796875 L 2.265625 -0.453125 L 2.265625 -2.796875 L 2.625 -2.796875 Z M 2.625 0.015625 "/></g></g></g><g fill="#e4c590" fill-opacity="1"><g transform="translate(49.587515, 32.503132)"><g><path d="M 0.15625 -2.796875 L 2.25 -2.796875 L 2.25 -2.5 L 1.390625 -2.5 L 1.390625 0 L 1.03125 0 L 1.03125 -2.5 L 0.15625 -2.5 Z M 0.15625 -2.796875 "/></g></g></g><g fill="#ffffff" fill-opacity="1"><g transform="translate(14.005413, 25.967178)"><g><path d="M 6.921875 -9.84375 L 6.921875 -6.1875 C 6.921875 -5.1875 6.554688 -4.523438 5.828125 -4.203125 L 6.859375 -0.265625 C 6.910156 -0.0859375 6.84375 0 6.65625 0 L 5.09375 0 C 4.945312 0 4.859375 -0.0664062 4.828125 -0.203125 L 3.828125 -4.03125 L 2.796875 -4.03125 L 2.796875 -0.234375 C 2.796875 -0.078125 2.710938 0 2.546875 0 L 0.984375 0 C 0.828125 0 0.75 -0.078125 0.75 -0.234375 L 0.75 -11.765625 C 0.75 -11.929688 0.828125 -12.015625 0.984375 -12.015625 L 4.765625 -12.015625 C 5.472656 -12.015625 6.007812 -11.832031 6.375 -11.46875 C 6.738281 -11.101562 6.921875 -10.5625 6.921875 -9.84375 Z M 2.796875 -6 L 4.28125 -6 C 4.675781 -6 4.875 -6.203125 4.875 -6.609375 L 4.875 -9.4375 C 4.875 -9.832031 4.675781 -10.03125 4.28125 -10.03125 L 2.796875 -10.03125 Z M 2.796875 -6 "/></g></g></g><g fill="#ffffff" fill-opacity="1"><g transform="translate(22.486829, 25.967178)"><g><path d="M 7.984375 0 L 6.390625 0 C 6.265625 0 6.1875 -0.0664062 6.15625 -0.203125 L 5.734375 -2.40625 L 3.0625 -2.40625 L 2.65625 -0.203125 C 2.625 -0.0664062 2.546875 0 2.421875 0 L 0.8125 0 C 0.632812 0 0.566406 -0.0820312 0.609375 -0.25 L 3.109375 -11.796875 C 3.140625 -11.941406 3.222656 -12.015625 3.359375 -12.015625 L 5.453125 -12.015625 C 5.585938 -12.015625 5.671875 -11.941406 5.703125 -11.796875 L 8.203125 -0.25 C 8.234375 -0.0820312 8.160156 0 7.984375 0 Z M 5.359375 -4.140625 L 4.40625 -9.390625 L 3.4375 -4.140625 Z M 5.359375 -4.140625 "/></g></g></g><g fill="#ffffff" fill-opacity="1"><g transform="translate(32.094078, 25.967178)"><g><path d="M 4.71875 -7 L 4.71875 -11.765625 C 4.71875 -11.929688 4.796875 -12.015625 4.953125 -12.015625 L 6.5 -12.015625 C 6.664062 -12.015625 6.75 -11.929688 6.75 -11.765625 L 6.75 -0.234375 C 6.75 -0.078125 6.664062 0 6.5 0 L 4.953125 0 C 4.796875 0 4.71875 -0.078125 4.71875 -0.234375 L 4.71875 -5.015625 L 2.796875 -5.015625 L 2.796875 -0.234375 C 2.796875 -0.078125 2.710938 0 2.546875 0 L 1 0 C 0.832031 0 0.75 -0.078125 0.75 -0.234375 L 0.75 -11.765625 C 0.75 -11.929688 0.832031 -12.015625 1 -12.015625 L 2.546875 -12.015625 C 2.710938 -12.015625 2.796875 -11.929688 2.796875 -11.765625 L 2.796875 -7 Z M 4.71875 -7 "/></g></g></g><g fill="#ffffff" fill-opacity="1"><g transform="translate(40.410371, 25.967178)"><g><path d="M 0.984375 -12.015625 L 2.546875 -12.015625 C 2.710938 -12.015625 2.796875 -11.929688 2.796875 -11.765625 L 2.796875 -0.234375 C 2.796875 -0.078125 2.710938 0 2.546875 0 L 0.984375 0 C 0.828125 0 0.75 -0.078125 0.75 -0.234375 L 0.75 -11.765625 C 0.75 -11.929688 0.828125 -12.015625 0.984375 -12.015625 Z M 0.984375 -12.015625 "/></g></g></g><g fill="#ffffff" fill-opacity="1"><g transform="translate(44.763724, 25.967178)"><g><path d="M 5.359375 -12.015625 L 6.921875 -12.015625 C 7.078125 -12.015625 7.15625 -11.929688 7.15625 -11.765625 L 7.15625 -0.234375 C 7.15625 -0.078125 7.078125 0 6.921875 0 L 5.4375 0 C 5.289062 0 5.203125 -0.0625 5.171875 -0.1875 L 2.875 -6.609375 L 2.796875 -6.609375 L 2.796875 -0.234375 C 2.796875 -0.078125 2.710938 0 2.546875 0 L 0.984375 0 C 0.828125 0 0.75 -0.078125 0.75 -0.234375 L 0.75 -11.765625 C 0.75 -11.929688 0.828125 -12.015625 0.984375 -12.015625 L 2.484375 -12.015625 C 2.617188 -12.015625 2.707031 -11.945312 2.75 -11.8125 L 5.03125 -5.4375 L 5.125 -5.4375 L 5.125 -11.765625 C 5.125 -11.929688 5.203125 -12.015625 5.359375 -12.015625 Z M 5.359375 -12.015625 "/></g></g></g><g fill="#ffffff" fill-opacity="1"><g transform="translate(53.485318, 25.967178)"><g><path d="M 0.75 -2.15625 L 0.75 -9.84375 C 0.75 -10.5625 0.929688 -11.101562 1.296875 -11.46875 C 1.671875 -11.832031 2.207031 -12.015625 2.90625 -12.015625 L 4.59375 -12.015625 C 5.300781 -12.015625 5.835938 -11.832031 6.203125 -11.46875 C 6.566406 -11.101562 6.75 -10.5625 6.75 -9.84375 L 6.75 -2.15625 C 6.75 -1.457031 6.566406 -0.921875 6.203125 -0.546875 C 5.835938 -0.179688 5.300781 0 4.59375 0 L 2.90625 0 C 2.207031 0 1.671875 -0.179688 1.296875 -0.546875 C 0.929688 -0.921875 0.75 -1.457031 0.75 -2.15625 Z M 3.34375 -1.9375 L 4.21875 -1.9375 C 4.613281 -1.9375 4.8125 -2.132812 4.8125 -2.53125 L 4.8125 -9.46875 C 4.8125 -9.875 4.613281 -10.078125 4.21875 -10.078125 L 3.34375 -10.078125 C 2.945312 -10.078125 2.75 -9.875 2.75 -9.46875 L 2.75 -2.53125 C 2.75 -2.132812 2.945312 -1.9375 3.34375 -1.9375 Z M 3.34375 -1.9375 "/></g></g></g></svg>